<svg xmlns="http://www.w3.org/2000/svg" xmlns:xlink="http://www.w3.org/1999/xlink" id="Layer_1" width="512" height="512" x="0" y="0" enable-background="new 0 0 512 512" version="1.1" viewBox="0 0 512 512" xml:space="preserve"><path fill="#484748" stroke="#000" stroke-miterlimit="10" d="M506.143,494.143c0,6.627-5.373,12-12,12H16.429	c-6.627,0-12-5.373-12-12V16.429c0-6.627,5.373-12,12-12h477.714c6.627,0,12,5.373,12,12V494.143z"/><path fill="#FFF" stroke="#000" stroke-miterlimit="10" d="M374.919,200.792c0,9.03-7.322,16.35-16.352,16.35H163.146	c-9.03,0-16.35-7.32-16.35-16.35V74.663c0-9.03,7.32-16.35,16.35-16.35h195.422c9.029,0,16.352,7.32,16.352,16.35V200.792z"/><path fill="#FFF" stroke="#000" stroke-miterlimit="10" d="M242.676,402.092c0,7.675-6.223,13.897-13.897,13.897H62.691	c-7.674,0-13.896-6.223-13.896-13.897V294.896c0-7.676,6.222-13.897,13.896-13.897h166.088c7.674,0,13.897,6.222,13.897,13.897	V402.092z"/><path fill="#FFF" stroke="#000" stroke-miterlimit="10" d="M462.676,402.092c0,7.675-6.223,13.897-13.896,13.897H282.691	c-7.674,0-13.896-6.223-13.896-13.897V294.896c0-7.676,6.223-13.897,13.896-13.897h166.088c7.674,0,13.896,6.222,13.896,13.897	V402.092z"/><line x1="260.857" x2="142.714" y1="137.728" y2="348.494" fill="#FFF" stroke="#FFF" stroke-miterlimit="10" stroke-width="30"/><line x1="260.857" x2="365.736" y1="137.728" y2="348.494" fill="none" stroke="#FFF" stroke-miterlimit="10" stroke-width="30"/></svg>